<?xml version="1.0" encoding="utf-8"?>
<!-- Generator: Adobe Illustrator 16.0.0, SVG Export Plug-In . SVG Version: 6.00 Build 0)  -->
<!DOCTYPE svg PUBLIC "-//W3C//DTD SVG 1.1//EN" "http://www.w3.org/Graphics/SVG/1.1/DTD/svg11.dtd">
<svg version="1.1" id="Layer_1" xmlns="http://www.w3.org/2000/svg" xmlns:xlink="http://www.w3.org/1999/xlink" x="0px" y="0px"
	 width="70.567px" height="79.156px" viewBox="363.625 382.308 70.567 79.156"
	 enable-background="new 363.625 382.308 70.567 79.156" xml:space="preserve">
<g id="Layer_2">
	<circle display="none" cx="251.5" cy="279.5" r="241"/>
</g>
<g id="Layer_4">
	<g>
		<path fill="none" stroke="#FFFFFF" stroke-width="0.1928" stroke-miterlimit="10" d="M434,438.289c0,2.12-1.503,4.724-3.34,5.784
			l-28.412,16.403c-1.837,1.06-4.843,1.06-6.68,0l-28.412-16.403c-1.836-1.061-3.339-3.664-3.339-5.784v-32.807
			c0-2.12,1.503-4.724,3.339-5.784l28.412-16.402c1.837-1.061,4.843-1.061,6.68,0l28.412,16.402c1.837,1.061,3.34,3.664,3.34,5.784
			V438.289L434,438.289L434,438.289z"/>
		<path fill="none" stroke="#FFFFFF" stroke-width="0.3856" stroke-miterlimit="10" d="M434,438.289c0,2.12-1.503,4.724-3.34,5.784
			l-28.412,16.403c-1.837,1.06-4.843,1.06-6.68,0l-28.412-16.403c-1.836-1.061-3.339-3.664-3.339-5.784v-32.807
			c0-2.12,1.503-4.724,3.339-5.784l28.412-16.402c1.837-1.061,4.843-1.061,6.68,0l28.412,16.402c1.837,1.061,3.34,3.664,3.34,5.784
			V438.289L434,438.289L434,438.289z"/>
	</g>
</g>
<g id="Layer_3">
	<circle display="none" cx="258.361" cy="257.527" r="97.917"/>
</g>
<polygon fill="#FFFFFF" points="410.514,429.429 406.158,421.886 404.711,419.379 398.908,409.328 391.658,421.886 384.408,434.443 
	390.199,434.443 391.658,431.915 398.908,419.357 401.815,424.393 400.368,426.9 398.908,429.429 404.723,429.429 406.158,431.915 
	407.618,434.443 413.408,434.443 "/>
</svg>
