<?xml version="1.0" encoding="utf-8"?>
<!-- Generator: Adobe Illustrator 16.0.0, SVG Export Plug-In . SVG Version: 6.00 Build 0)  -->
<!DOCTYPE svg PUBLIC "-//W3C//DTD SVG 1.1//EN" "http://www.w3.org/Graphics/SVG/1.1/DTD/svg11.dtd">
<svg version="1.1" id="Capa_1" xmlns="http://www.w3.org/2000/svg" xmlns:xlink="http://www.w3.org/1999/xlink" x="0px" y="0px"
	 width="56.969px" height="101.123px" viewBox="19.577 -2.5 56.969 101.123" enable-background="new 19.577 -2.5 56.969 101.123"
	 xml:space="preserve">
<g>
	<path fill="none" stroke="#FFFFFF" stroke-width="5" stroke-miterlimit="10" d="M72.089,0.02L59.625,0
		C45.62,0,36.57,9.285,36.57,23.656v10.907H24.037c-1.083,0-1.96,0.878-1.96,1.961v15.803c0,1.083,0.878,1.96,1.96,1.96H36.57
		v39.876c0,1.083,0.877,1.96,1.96,1.96h16.353c1.082,0,1.959-0.878,1.959-1.96V54.287h14.654c1.084,0,1.961-0.877,1.961-1.96
		l0.006-15.803c0-0.52-0.207-1.018-0.574-1.386c-0.367-0.368-0.867-0.575-1.387-0.575h-14.66v-9.246c0-4.444,1.06-6.7,6.849-6.7
		l8.397-0.003c1.082,0,1.959-0.878,1.959-1.96V1.98C74.046,0.899,73.169,0.022,72.089,0.02z"/>
</g>
</svg>
