<?xml version="1.0" encoding="utf-8"?>
<!-- Generator: Adobe Illustrator 16.0.0, SVG Export Plug-In . SVG Version: 6.00 Build 0)  -->
<!DOCTYPE svg PUBLIC "-//W3C//DTD SVG 1.1//EN" "http://www.w3.org/Graphics/SVG/1.1/DTD/svg11.dtd">
<svg version="1.1" id="Capa_1" xmlns="http://www.w3.org/2000/svg" xmlns:xlink="http://www.w3.org/1999/xlink" x="0px" y="0px"
	 width="88px" height="83px" viewBox="0 0 88 83" enable-background="new 0 0 88 83" xml:space="preserve">
<rect x="-92" y="7" fill="#070707" width="88" height="76"/>
<path fill="none" stroke="#000000" stroke-width="5" stroke-miterlimit="10" d="M-42,0.5"/>
<g>
	<path fill="none" stroke="#FFFFFF" stroke-width="5" stroke-miterlimit="10" d="M-11.991,16.563
		c-0.229-0.971-1.216-1.919-2.194-2.108l-22.389-4.296C-37.554,9.969-38.5,9.848-38.5,9.889c0,0,0,0,0,0.039
		c0,5.505-3.995,9.968-9.5,9.968s-9.5-4.463-9.5-9.968c0-0.039,0-0.039,0-0.039c0-0.042-1.112,0.083-2.089,0.278l-21.671,4.277
		c-0.978,0.195-2.044,1.147-2.272,2.118l-5.703,24.111c-0.229,0.971,0.32,2.075,1.242,2.454l14.259,5.871
		c0.921,0.379,1.689-0.126,1.711-1.123l-0.131-11.328c0.022-0.997-0.347-0.997-0.347,0v42.14c0,0.997,1.588,1.812,2.584,1.812
		h44.405c0.997,0,2.01-0.815,2.01-1.812v-42.14c0-0.997-0.091-0.997-0.079,0l0.074,11.328c0.011,0.997,0.75,1.502,1.671,1.124
		l14.257-5.871c0.921-0.379,1.483-1.483,1.255-2.454L-11.991,16.563z"/>
</g>
<g>
	<path fill="none" stroke="#FFFFFF" stroke-width="5" stroke-miterlimit="10" d="M85.5,79.545c0,0.525-0.43,0.955-0.955,0.955H3.455
		C2.93,80.5,2.5,80.07,2.5,79.545v-69.09C2.5,9.93,2.93,9.5,3.455,9.5h81.09c0.525,0,0.955,0.43,0.955,0.955V79.545z"/>
</g>
<g>
	<path fill="#FFFFFF" d="M21,18c0,0.55-0.45,1-1,1h-2c-0.55,0-1-0.45-1-1V1c0-0.55,0.45-1,1-1h2c0.55,0,1,0.45,1,1V18z"/>
</g>
<g>
	<path fill="#FFFFFF" d="M71,18c0,0.55-0.45,1-1,1h-2c-0.55,0-1-0.45-1-1V1c0-0.55,0.45-1,1-1h2c0.55,0,1,0.45,1,1V18z"/>
</g>
<g>
	<g>
		<g>
			<path fill="#FFFFFF" d="M25.938,58.862c0-0.55,0.45-1,1-1h4.146c0.55,0,1-0.45,1-1v-17.5c0-0.55,0.008-1.45,0.018-2
				c0,0,0.003-0.178,0.043-0.776l-4.35,3.721c-0.418,0.357-0.88,0.732-1.026,0.833c0,0,0,0-0.133,0.047
				c-0.134,0.046-0.26,0.07-0.38,0.07c-0.199,0-0.379-0.043-0.538-0.13c-0.16-0.086-0.279-0.19-0.359-0.31l-0.53-0.728
				c-0.324-0.445-0.248-1.103,0.167-1.463l6.991-6.056c0.416-0.36,1.206-0.655,1.756-0.655h0.894c0.55,0,1,0.45,1,1v23.947
				c0,0.55,0.45,1,1,1h3.629c0.55,0,1,0.45,1,1v0.714c0,0.55-0.45,1-1,1H26.938c-0.55,0-1-0.45-1-1V58.862z"/>
		</g>
		<g>
			<path fill="#FFFFFF" d="M62.882,32.753c0,0.428-0.072,1.193-0.16,1.699c0,0,0,0-0.319,0.327
				c-0.319,0.326-0.858,0.489-1.616,0.489h-7.982c-0.55,0-1.078,0.443-1.173,0.985l-0.972,5.535
				c-0.095,0.542,0.271,0.911,0.813,0.82c0,0,1.881-0.314,3.146-0.314c1.49,0,2.805,0.22,3.942,0.659s2.092,1.044,2.864,1.816
				c0.771,0.772,1.354,1.684,1.746,2.735c0.393,1.051,0.589,2.195,0.589,3.433c0,1.517-0.267,2.887-0.799,4.112
				c-0.532,1.224-1.261,2.272-2.186,3.143c-0.925,0.872-2.013,1.541-3.263,2.006c-1.251,0.466-2.602,0.698-4.052,0.698
				c-0.839,0-1.644-0.083-2.415-0.249c-0.772-0.166-1.491-0.389-2.156-0.668s-1.284-0.599-1.856-0.958
				c-0.571-0.359-1.077-0.738-1.517-1.138l0.499-0.701c0.319-0.448,0.831-1.048,1.138-1.334c0,0,0,0,0.399,0
				c0.252,0,0.549,0.103,0.888,0.31c0.34,0.206,0.749,0.435,1.228,0.688c0.479,0.252,1.041,0.482,1.687,0.688
				c0.646,0.207,1.414,0.309,2.306,0.309c0.998,0,1.896-0.159,2.694-0.478c0.799-0.32,1.48-0.776,2.046-1.368
				c0.565-0.592,1.001-1.3,1.308-2.125c0.306-0.825,0.459-1.75,0.459-2.774c0-0.892-0.13-1.696-0.389-2.415
				c-0.26-0.719-0.652-1.331-1.178-1.836c-0.526-0.506-1.182-0.898-1.967-1.178s-1.703-0.419-2.754-0.419
				c-0.719,0-1.464,0.06-2.235,0.179c-0.772,0.121-1.57,0.313-2.396,0.579l-1.276-0.376c-0.527-0.156-0.882-0.726-0.789-1.268
				l1.975-11.402c0.094-0.542,0.621-0.985,1.17-0.985h11.553C62.432,31.975,62.882,32.325,62.882,32.753z"/>
		</g>
	</g>
</g>
<g>
	<path fill="#FFFFFF" d="M-98,9.995C-98,10.55-98.45,11-99.005,11h-66.989C-166.55,11-167,10.55-167,9.995V8.005
		C-167,7.45-166.55,7-165.995,7h66.989C-98.45,7-98,7.45-98,8.005V9.995z"/>
</g>
<g>
	<path fill="#FFFFFF" d="M-175,9.586c0,0.778-0.636,1.414-1.414,1.414h-5.172c-0.778,0-1.414-0.636-1.414-1.414V8.414
		C-183,7.636-182.364,7-181.586,7h5.172C-175.636,7-175,7.636-175,8.414V9.586z"/>
</g>
<g>
	<path fill="#FFFFFF" d="M-98,33.995C-98,34.55-98.45,35-99.005,35h-66.989c-0.555,0-1.005-0.45-1.005-1.005v-1.989
		c0-0.555,0.45-1.005,1.005-1.005h66.989C-98.45,31-98,31.45-98,32.005V33.995z"/>
</g>
<g>
	<path fill="#FFFFFF" d="M-175,33.586c0,0.778-0.636,1.414-1.414,1.414h-5.172c-0.778,0-1.414-0.636-1.414-1.414v-1.172
		c0-0.778,0.636-1.414,1.414-1.414h5.172c0.778,0,1.414,0.636,1.414,1.414V33.586z"/>
</g>
<g>
	<path fill="#FFFFFF" d="M-98,57.995C-98,58.55-98.45,59-99.005,59h-66.989c-0.555,0-1.005-0.45-1.005-1.005v-1.989
		c0-0.555,0.45-1.005,1.005-1.005h66.989C-98.45,55-98,55.45-98,56.005V57.995z"/>
</g>
<g>
	<path fill="#FFFFFF" d="M-175,57.586c0,0.778-0.636,1.414-1.414,1.414h-5.172c-0.778,0-1.414-0.636-1.414-1.414v-1.172
		c0-0.778,0.636-1.414,1.414-1.414h5.172c0.778,0,1.414,0.636,1.414,1.414V57.586z"/>
</g>
<g>
	<path fill="#FFFFFF" d="M-98,81.994C-98,82.55-98.45,83-99.005,83h-66.989c-0.555,0-1.005-0.45-1.005-1.006v-1.988
		c0-0.556,0.45-1.006,1.005-1.006h66.989C-98.45,79-98,79.45-98,80.006V81.994z"/>
</g>
<g>
	<path fill="#FFFFFF" d="M-175,81.586c0,0.777-0.636,1.414-1.414,1.414h-5.172c-0.778,0-1.414-0.637-1.414-1.414v-1.172
		c0-0.777,0.636-1.414,1.414-1.414h5.172c0.778,0,1.414,0.637,1.414,1.414V81.586z"/>
</g>
</svg>
