<?xml version="1.0" encoding="utf-8"?>
<!-- Generator: Adobe Illustrator 16.0.0, SVG Export Plug-In . SVG Version: 6.00 Build 0)  -->
<!DOCTYPE svg PUBLIC "-//W3C//DTD SVG 1.1//EN" "http://www.w3.org/Graphics/SVG/1.1/DTD/svg11.dtd">
<svg version="1.1" id="Capa_1" xmlns="http://www.w3.org/2000/svg" xmlns:xlink="http://www.w3.org/1999/xlink" x="0px" y="0px"
	 width="88.016px" height="75.619px" viewBox="0 0 88.016 75.619" enable-background="new 0 0 88.016 75.619" xml:space="preserve">
<path fill="none" stroke="#000000" stroke-width="5" stroke-miterlimit="10" d="M49.787-6.881"/>
<g>
	<path fill="none" stroke="#FFFFFF" stroke-width="5" stroke-miterlimit="10" d="M79.795,9.182
		c-0.229-0.971-1.216-1.919-2.194-2.108L55.212,2.777c-0.979-0.189-1.925-0.311-1.925-0.269c0,0,0,0,0,0.039
		c0,5.505-3.995,9.968-9.5,9.968s-9.5-4.463-9.5-9.968c0-0.039,0-0.039,0-0.039c0-0.042-1.112,0.083-2.089,0.278L10.527,7.064
		C9.549,7.259,8.482,8.211,8.254,9.182L2.552,33.293c-0.229,0.971,0.32,2.075,1.242,2.454l14.259,5.871
		c0.921,0.379,1.689-0.126,1.711-1.123l-0.131-11.328c0.022-0.997-0.347-0.997-0.347,0v42.14c0,0.997,1.588,1.812,2.584,1.812
		h44.405c0.997,0,2.01-0.815,2.01-1.812v-42.14c0-0.997-0.091-0.997-0.079,0l0.074,11.328c0.011,0.997,0.75,1.502,1.671,1.124
		l14.257-5.871c0.921-0.379,1.483-1.483,1.255-2.454L79.795,9.182z"/>
</g>
<g>
	<path fill="none" stroke="#FFFFFF" stroke-width="5" stroke-miterlimit="10" d="M177.287,72.164c0,0.525-0.43,0.955-0.955,0.955
		h-81.09c-0.525,0-0.955-0.43-0.955-0.955V3.074c0-0.525,0.43-0.955,0.955-0.955h81.09c0.525,0,0.955,0.43,0.955,0.955V72.164z"/>
</g>
<g>
	<path fill="#FFFFFF" d="M112.787,10.619c0,0.55-0.45,1-1,1h-2c-0.55,0-1-0.45-1-1v-17c0-0.55,0.45-1,1-1h2c0.55,0,1,0.45,1,1
		V10.619z"/>
</g>
<g>
	<path fill="#FFFFFF" d="M162.787,10.619c0,0.55-0.45,1-1,1h-2c-0.55,0-1-0.45-1-1v-17c0-0.55,0.45-1,1-1h2c0.55,0,1,0.45,1,1
		V10.619z"/>
</g>
<g>
	<g>
		<g>
			<path fill="#FFFFFF" d="M117.724,51.481c0-0.55,0.45-1,1-1h4.146c0.55,0,1-0.45,1-1v-17.5c0-0.55,0.008-1.45,0.018-2
				c0,0,0.003-0.178,0.043-0.776l-4.35,3.721c-0.418,0.357-0.88,0.732-1.026,0.833c0,0,0,0-0.133,0.047
				c-0.134,0.046-0.26,0.07-0.38,0.07c-0.199,0-0.379-0.043-0.538-0.13c-0.16-0.086-0.279-0.19-0.359-0.31l-0.53-0.728
				c-0.324-0.445-0.248-1.103,0.167-1.463l6.991-6.056c0.416-0.36,1.206-0.655,1.756-0.655h0.894c0.55,0,1,0.45,1,1v23.947
				c0,0.55,0.45,1,1,1h3.629c0.55,0,1,0.45,1,1v0.714c0,0.55-0.45,1-1,1h-13.328c-0.55,0-1-0.45-1-1V51.481z"/>
		</g>
		<g>
			<path fill="#FFFFFF" d="M154.668,25.373c0,0.428-0.072,1.193-0.16,1.699c0,0,0,0-0.319,0.327
				c-0.319,0.326-0.858,0.489-1.616,0.489h-7.982c-0.55,0-1.078,0.443-1.173,0.985l-0.972,5.535
				c-0.095,0.542,0.271,0.911,0.813,0.82c0,0,1.881-0.314,3.146-0.314c1.49,0,2.805,0.22,3.942,0.659s2.092,1.044,2.864,1.816
				c0.771,0.772,1.354,1.684,1.746,2.735c0.393,1.051,0.589,2.195,0.589,3.433c0,1.517-0.267,2.887-0.799,4.112
				c-0.532,1.224-1.261,2.272-2.186,3.143c-0.925,0.872-2.013,1.541-3.263,2.006c-1.251,0.466-2.602,0.698-4.052,0.698
				c-0.839,0-1.644-0.083-2.415-0.249c-0.772-0.166-1.491-0.389-2.156-0.668s-1.284-0.599-1.856-0.958
				c-0.571-0.359-1.077-0.738-1.517-1.138l0.499-0.701c0.319-0.448,0.831-1.048,1.138-1.334c0,0,0,0,0.399,0
				c0.252,0,0.549,0.103,0.888,0.31c0.34,0.206,0.749,0.435,1.228,0.688c0.479,0.252,1.041,0.482,1.687,0.688
				c0.646,0.207,1.414,0.309,2.306,0.309c0.998,0,1.896-0.159,2.694-0.478c0.799-0.32,1.48-0.776,2.046-1.368
				c0.565-0.592,1.001-1.3,1.308-2.125c0.306-0.825,0.459-1.75,0.459-2.774c0-0.892-0.13-1.696-0.389-2.415
				c-0.26-0.719-0.652-1.331-1.178-1.836c-0.526-0.506-1.182-0.898-1.967-1.178s-1.703-0.419-2.754-0.419
				c-0.719,0-1.464,0.06-2.235,0.179c-0.772,0.121-1.57,0.313-2.396,0.579l-1.276-0.376c-0.527-0.156-0.882-0.726-0.789-1.268
				l1.975-11.402c0.094-0.542,0.621-0.985,1.17-0.985h11.553C154.218,24.594,154.668,24.944,154.668,25.373z"/>
		</g>
	</g>
</g>
<g>
	<path fill="#FFFFFF" d="M-7.213-0.381c0.55,0,1,0.45,1,1v2c0,0.55-0.45,1-1,1h-62c-0.55,0-1-0.45-1-1v-2c0-0.55,0.45-1,1-1H-7.213z
		"/>
</g>
<g>
	<path fill="#FFFFFF" d="M-78.213,2.619c0,0.55-0.45,1-1,1h-14c-0.55,0-1-0.45-1-1v-2c0-0.55,0.45-1,1-1h14c0.55,0,1,0.45,1,1V2.619
		z"/>
</g>
<g>
	<path fill="#FFFFFF" d="M-7.213,23.619c0.55,0,1,0.45,1,1v2c0,0.55-0.45,1-1,1h-62c-0.55,0-1-0.45-1-1v-2c0-0.55,0.45-1,1-1H-7.213
		z"/>
</g>
<g>
	<path fill="#FFFFFF" d="M-78.213,26.619c0,0.55-0.45,1-1,1h-14c-0.55,0-1-0.45-1-1v-2c0-0.55,0.45-1,1-1h14c0.55,0,1,0.45,1,1
		V26.619z"/>
</g>
<g>
	<path fill="#FFFFFF" d="M-7.213,47.619c0.55,0,1,0.45,1,1v2c0,0.55-0.45,1-1,1h-62c-0.55,0-1-0.45-1-1v-2c0-0.55,0.45-1,1-1H-7.213
		z"/>
</g>
<g>
	<path fill="#FFFFFF" d="M-78.213,50.619c0,0.55-0.45,1-1,1h-14c-0.55,0-1-0.45-1-1v-2c0-0.55,0.45-1,1-1h14c0.55,0,1,0.45,1,1
		V50.619z"/>
</g>
<g>
	<path fill="#FFFFFF" d="M-7.213,71.619c0.55,0,1,0.45,1,1v2c0,0.55-0.45,1-1,1h-62c-0.55,0-1-0.45-1-1v-2c0-0.55,0.45-1,1-1H-7.213
		z"/>
</g>
<g>
	<path fill="#FFFFFF" d="M-78.213,74.619c0,0.55-0.45,1-1,1h-14c-0.55,0-1-0.45-1-1v-2c0-0.55,0.45-1,1-1h14c0.55,0,1,0.45,1,1
		V74.619z"/>
</g>
</svg>
