<?xml version="1.0" encoding="utf-8"?>
<!-- Generator: Adobe Illustrator 16.0.0, SVG Export Plug-In . SVG Version: 6.00 Build 0)  -->
<!DOCTYPE svg PUBLIC "-//W3C//DTD SVG 1.1//EN" "http://www.w3.org/Graphics/SVG/1.1/DTD/svg11.dtd">
<svg version="1.1" id="Capa_1" xmlns="http://www.w3.org/2000/svg" xmlns:xlink="http://www.w3.org/1999/xlink" x="0px" y="0px"
	 width="88.016px" height="82.5px" viewBox="0 0 88.016 82.5" enable-background="new 0 0 88.016 82.5" xml:space="preserve">
<path fill="none" stroke="#000000" stroke-width="5" stroke-miterlimit="10" d="M49.787,0"/>
<g>
	<path fill="none" stroke="#FFFFFF" stroke-width="5" stroke-miterlimit="10" d="M79.795,16.063
		c-0.229-0.971-1.216-1.919-2.194-2.108L55.212,9.658c-0.979-0.189-1.925-0.311-1.925-0.269c0,0,0,0,0,0.039
		c0,5.505-3.995,9.968-9.5,9.968s-9.5-4.463-9.5-9.968c0-0.039,0-0.039,0-0.039c0-0.042-1.112,0.083-2.089,0.278l-21.671,4.277
		c-0.978,0.195-2.044,1.147-2.272,2.118L2.552,40.174c-0.229,0.971,0.32,2.075,1.242,2.454l14.259,5.871
		c0.921,0.379,1.689-0.126,1.711-1.123l-0.131-11.328c0.022-0.997-0.347-0.997-0.347,0v42.14c0,0.997,1.588,1.812,2.584,1.812
		h44.405c0.997,0,2.01-0.815,2.01-1.812v-42.14c0-0.997-0.091-0.997-0.079,0l0.074,11.328c0.011,0.997,0.75,1.502,1.671,1.124
		l14.257-5.871c0.921-0.379,1.483-1.483,1.255-2.454L79.795,16.063z"/>
</g>
<rect x="94.287" y="9" fill="none" stroke="#FFFFFF" stroke-width="5" stroke-miterlimit="10" width="91" height="71"/>
<rect x="115.787" y="-0.5" fill="#FFFFFF" width="4" height="19"/>
<rect x="159.787" y="-0.5" fill="#FFFFFF" width="4" height="19"/>
<g>
	<path fill="#FFFFFF" d="M117.688,58.682h7.392V35.233c0-0.704,0.024-1.416,0.072-2.136l-6.144,5.256
		c-0.16,0.128-0.32,0.22-0.48,0.276c-0.16,0.056-0.312,0.084-0.456,0.084c-0.24,0-0.456-0.052-0.648-0.156
		c-0.192-0.104-0.336-0.229-0.432-0.372l-1.344-1.848l10.224-8.856h3.48v31.2h6.768v3.264h-18.432V58.682z"/>
	<path fill="#FFFFFF" d="M162.111,29.426c0,0.608-0.192,1.107-0.576,1.5c-0.384,0.392-1.032,0.588-1.944,0.588h-10.8l-1.584,9.023
		c1.792-0.384,3.448-0.575,4.968-0.575c1.792,0,3.372,0.264,4.74,0.792c1.368,0.527,2.516,1.256,3.444,2.184
		c0.928,0.928,1.627,2.024,2.1,3.288s0.708,2.64,0.708,4.128c0,1.824-0.32,3.472-0.96,4.944c-0.64,1.472-1.516,2.732-2.628,3.779
		c-1.112,1.049-2.42,1.853-3.924,2.412c-1.504,0.561-3.128,0.84-4.872,0.84c-1.008,0-1.976-0.1-2.904-0.3
		c-0.928-0.199-1.792-0.468-2.592-0.804c-0.8-0.336-1.544-0.72-2.232-1.152c-0.688-0.432-1.296-0.888-1.824-1.368l1.296-1.823
		c0.288-0.416,0.672-0.624,1.152-0.624c0.304,0,0.66,0.124,1.068,0.372c0.408,0.248,0.9,0.523,1.476,0.828
		c0.576,0.304,1.252,0.58,2.028,0.827c0.776,0.249,1.7,0.372,2.772,0.372c1.2,0,2.28-0.191,3.24-0.575
		c0.96-0.385,1.78-0.933,2.46-1.645c0.68-0.712,1.204-1.563,1.572-2.556s0.552-2.104,0.552-3.336c0-1.072-0.156-2.04-0.468-2.904
		c-0.312-0.864-0.784-1.6-1.416-2.208c-0.632-0.608-1.42-1.08-2.364-1.416c-0.944-0.336-2.048-0.504-3.312-0.504
		c-0.864,0-1.76,0.072-2.688,0.216c-0.928,0.145-1.888,0.376-2.88,0.696l-2.688-0.792l2.784-16.08h16.296V29.426z"/>
</g>
</svg>
