<?xml version="1.0" encoding="utf-8"?>
<!-- Generator: Adobe Illustrator 16.0.0, SVG Export Plug-In . SVG Version: 6.00 Build 0)  -->
<!DOCTYPE svg PUBLIC "-//W3C//DTD SVG 1.1//EN" "http://www.w3.org/Graphics/SVG/1.1/DTD/svg11.dtd">
<svg version="1.1" id="Capa_1" xmlns="http://www.w3.org/2000/svg" xmlns:xlink="http://www.w3.org/1999/xlink" x="0px" y="0px"
	 width="126.103px" height="94.81px" viewBox="640.755 415.131 126.103 94.81"
	 enable-background="new 640.755 415.131 126.103 94.81" xml:space="preserve">
<g>
	<g>
		<path fill="none" stroke="#FFFFFF" stroke-width="5" stroke-miterlimit="10" d="M760,429.464
			c-4.008,1.775-8.308,2.979-12.825,3.518c4.613-2.763,8.145-7.144,9.817-12.349c-4.326,2.558-9.103,4.416-14.192,5.423
			c-4.075-4.348-9.872-7.056-16.301-7.056c-12.335,0-22.337,10.001-22.337,22.329c0,1.749,0.197,3.456,0.578,5.09
			c-18.56-0.933-35.018-9.825-46.032-23.337c-1.926,3.293-3.021,7.13-3.021,11.226c0,7.75,3.946,14.588,9.934,18.588
			c-3.66-0.122-7.104-1.129-10.117-2.803v0.278c0,10.818,7.702,19.847,17.914,21.901c-1.871,0.503-3.844,0.782-5.885,0.782
			c-1.442,0-2.837-0.143-4.205-0.415c2.844,8.879,11.09,15.335,20.86,15.513c-7.641,5.987-17.274,9.545-27.738,9.545
			c-1.803,0-3.579-0.108-5.327-0.306c9.886,6.348,21.622,10.049,34.235,10.049c41.087,0,63.546-34.032,63.546-63.546l-0.075-2.892
			C753.217,437.873,757.013,433.94,760,429.464z"/>
	</g>
</g>
</svg>
